<svg xmlns="http://www.w3.org/2000/svg" width="64" height="64" viewBox="0 0 64 64" fill="none">
<path d="M31.9984 8.91187L29.2084 7.67188L28.3984 9.49187L30.9984 10.6519V13.5019H32.9984V10.6519L35.5984 9.49187L34.7884 7.67188L31.9984 8.91187Z" fill="#8240FF"/>
<path d="M31.9992 51.8597L29.4292 50.4297L28.4492 52.1697L30.9992 53.5897V56.4997H32.9992V53.5897L35.5492 52.1697L34.5792 50.4297L31.9992 51.8597Z" fill="#8240FF"/>
<path d="M62.5019 26.1286L53.5019 21.1286L50.3719 19.5586L49.4719 21.3486L50.9119 22.0686L44.0019 25.8686L41.3419 24.5386L40.4419 26.3286L43.0019 27.6186V35.3786L41.3219 34.5386L40.4219 36.3286L41.7619 36.9986L40.4219 37.6686L41.3219 39.4586L44.0019 38.1286L50.8619 41.9986L49.4219 42.7186L50.3219 44.5086L52.0019 43.6186V45.4986H54.0019V42.5886L62.4919 37.8686C62.6463 37.7818 62.775 37.6555 62.8646 37.5026C62.9542 37.3497 63.0016 37.1758 63.0019 36.9986V26.9986C63.0026 26.8224 62.9567 26.6491 62.8689 26.4963C62.7811 26.3436 62.6545 26.2167 62.5019 26.1286V26.1286ZM61.0019 36.4086L54.0019 40.2986V38.4986H52.0019V40.2986L45.0019 36.4086V28.6986L46.5719 29.5786L47.5719 27.8286L46.0619 26.9986L53.0019 23.1386L57.0019 25.3786L60.0019 26.9986L58.5019 27.8286L59.5019 29.5786L61.0019 28.6986V36.4086Z" fill="#8240FF"/>
<path d="M52.9992 30.8597L50.4192 29.4297L49.4492 31.1797L51.9992 32.5897V35.4997H53.9992V32.5897L56.5492 31.1797L55.5792 29.4297L52.9992 30.8597Z" fill="#8240FF"/>
<path d="M20 38.1291L22.66 39.4591L23.56 37.6691L22.24 36.9991L23.58 36.3291L22.68 34.5391L21 35.3791V27.6191L23.58 26.3291L22.68 24.5391L20 25.8691L13.12 22.0491L14.56 21.3291L13.66 19.5391L10.53 21.1091L1.53003 26.1091C1.36885 26.1949 1.23424 26.3232 1.14081 26.4801C1.04738 26.637 0.99869 26.8165 1.00003 26.9991V36.9991C1.00033 37.1763 1.04772 37.3502 1.13733 37.5031C1.22694 37.6559 1.35556 37.7822 1.51003 37.8691L10 42.5891V45.4991H12V43.6191L13.68 44.4591L14.58 42.6691L13.14 41.9991L20 38.1291ZM10 38.4991V40.2991L3.00003 36.4091V28.6991L4.57003 29.5791L5.57003 27.8291L4.06003 26.9991L11 23.1391L15 25.3791L18 26.9991L16.5 27.8291L17.5 29.5791L19 28.6991V36.4091L12 40.2991V38.4991H10Z" fill="#8240FF"/>
<path d="M12.0009 32.5897L14.5409 31.1797L13.5709 29.4297L11.0009 30.8597L8.43094 29.4297L7.46094 31.1797L10.0009 32.5897V35.4997H12.0009V32.5897Z" fill="#8240FF"/>
<path d="M12 47.5H10V51C10.0006 51.1847 10.0522 51.3656 10.1493 51.5227C10.2464 51.6798 10.3851 51.8069 10.55 51.89L13.68 53.46L14.58 51.67L12 50.38V47.5Z" fill="#8240FF"/>
<path d="M44.5819 47.3291L43.6819 45.5391L41.0019 46.8691L34.1219 43.0491L35.5619 42.3291L34.6619 40.5391L32.0019 41.8791L29.3219 40.5391L28.4219 42.3291L29.8619 43.0491L23.0019 46.8691L20.3419 45.5391L19.4419 47.3291L22.0019 48.6191V55.3791L20.3219 54.5391L19.4219 56.3291L22.5419 57.8891L31.5419 62.8891C31.6939 62.9768 31.8663 63.023 32.0419 63.023C32.2174 63.023 32.3899 62.9768 32.5419 62.8891L41.5419 57.8891L44.6619 56.3291L43.7619 54.5391L42.0019 55.3791V48.6191L44.5819 47.3291ZM40.0019 56.4091L33.0019 60.2991V58.4991H31.0019V60.2991L24.0019 56.4091V49.6991L25.5719 50.5791L26.5719 48.8291L25.0619 47.9991L32.0019 44.1391L36.0019 46.3791L39.0019 47.9991L37.5019 48.8291L38.5019 50.5791L40.0019 49.6991V56.4091Z" fill="#8240FF"/>
<path d="M52.0019 50.38L49.4219 51.67L50.3219 53.46L53.4519 51.89C53.6168 51.8069 53.7555 51.6798 53.8526 51.5227C53.9496 51.3656 54.0013 51.1847 54.0019 51V47.5H52.0019V50.38Z" fill="#8240FF"/>
<path d="M43.6819 18.4592L44.5819 16.6692L42.0019 15.3792V5.99916C42.0024 5.81927 41.9543 5.64258 41.8628 5.48771C41.7713 5.33283 41.6397 5.20551 41.4819 5.11916H41.4019L32.4019 1.11916C32.273 1.06121 32.1332 1.03125 31.9919 1.03125C31.8505 1.03125 31.7108 1.06121 31.5819 1.11916L22.5819 5.11916C22.4129 5.1973 22.269 5.32108 22.1665 5.47655C22.0641 5.63203 22.007 5.81303 22.0019 5.99916V15.3792L19.4219 16.6692L20.3219 18.4592L23.0019 17.1292L29.8619 20.9992L28.4219 21.7192L29.3219 23.5092L31.0019 22.6192V24.4992C31.0019 24.7644 31.1072 25.0187 31.2948 25.2063C31.4823 25.3938 31.7367 25.4992 32.0019 25.4992C32.2671 25.4992 32.5214 25.3938 32.709 25.2063C32.8965 25.0187 33.0019 24.7644 33.0019 24.4992V22.6192L34.6819 23.4592L35.5819 21.6692L34.1419 20.9992L41.0019 17.1292L43.6819 18.4592ZM40.0019 15.4092L33.0019 19.2992V17.4992H31.0019V19.2992L24.0019 15.4092V7.53916L25.7919 8.33916L26.6019 6.50916L25.4619 5.99916L32.0019 3.08916L36.0919 4.90916L38.5419 5.99916L37.4019 6.50916L38.2119 8.33916L40.0019 7.53916V15.4092Z" fill="#8240FF"/>
<path d="M31.0019 27.5V30.38L28.4219 31.67L29.3219 33.46L32.0019 32.12L34.6819 33.46L35.5819 31.67L33.0019 30.38V27.5H31.0019Z" fill="#8240FF"/>
</svg>